<?xml version="1.0" encoding="utf-8"?>
<svg version="1.1" id="Layer_1" xmlns="http://www.w3.org/2000/svg" xmlns:xlink="http://www.w3.org/1999/xlink" x="0px" y="0px"
	 width="1400px" height="980px" viewBox="0 0 1400 980" style="enable-background:new 0 0 1400 980;" xml:space="preserve">
  <g id="XMLID_13_">
    <g id="XMLID_6_">
      <path id="XMLID_67_" class="st0" d="M191.3,248.9c0-29.7-24.2-53.9-53.9-53.9c-29.7,0-53.9,24.2-53.9,53.9
			c0,29.7,24.2,53.9,53.9,53.9C167.1,302.8,191.3,278.7,191.3,248.9z M178.2,276.1c-12.7-5.9-20.6-15-21.7-24.8h29.9
			C186,260.5,183,269,178.2,276.1z M178.2,221.7c4.8,7.2,7.7,15.6,8.2,24.8h-29.9C157.7,236.7,165.6,227.7,178.2,221.7z
			 M139.8,199.9c14.3,0.7,26.9,7.5,35.5,17.9c-13.9,6.8-22.6,17.3-23.6,28.7h-11.9V199.9z M139.8,251.4h11.9
			c1.1,11.5,9.7,21.9,23.6,28.7c-8.5,10.4-21.2,17.2-35.5,17.9V251.4z M96.6,221.7c12.7,5.9,20.6,15,21.7,24.8H88.4
			C88.9,237.4,91.8,228.9,96.6,221.7z M96.6,276.1c-4.8-7.2-7.7-15.6-8.2-24.8h29.9C117.2,261.1,109.3,270.2,96.6,276.1z M135,297.9
			c-14.3-0.7-26.9-7.5-35.5-17.9c13.9-6.8,22.6-17.3,23.6-28.7H135V297.9z M135,246.5h-11.9c-1.1-11.5-9.7-21.9-23.6-28.7
			c8.5-10.4,21.2-17.2,35.5-17.9V246.5z"/>
    </g>
  </g>
</svg>

