<?xml version="1.0" encoding="utf-8"?>
<svg version="1.1" id="Layer_1" xmlns="http://www.w3.org/2000/svg" xmlns:xlink="http://www.w3.org/1999/xlink" x="0px" y="0px"
	 width="1400px" height="980px" viewBox="0 0 1400 980" style="enable-background:new 0 0 1400 980;" xml:space="preserve">
  <g id="XMLID_13_">
    <g id="XMLID_6_">
      <path id="XMLID_214_" class="st0" d="M187.5,885.1c3.4,0,6.1-2.7,6.1-6.1v-77.5c0-3.4-2.7-6.1-6.1-6.1H87.4
        c-3.4,0-6.1,2.7-6.1,6.1v77.5c0,3.4,2.7,6.1,6.1,6.1H187.5z M86.1,878.9v-77.5c0-0.7,0.6-1.3,1.3-1.3h100.1
        c0.7,0,1.3,0.6,1.3,1.3v77.5c0,0.7-0.6,1.3-1.3,1.3H87.4C86.6,880.2,86.1,879.6,86.1,878.9z"/>
      <path id="XMLID_217_" class="st0" d="M90.8,831v44.4h41.9V831H90.8z M127.9,870.6H95.6v-34.8h32.3V870.6z"/>
      <path id="XMLID_220_" class="st0" d="M142.1,831v44.4H184V831H142.1z M179.2,870.6H147v-34.8h32.3V870.6z"/>
      <path id="XMLID_204_" class="st0" d="M114.3,818.2v0.8c0,2.1,1,3.2,3,3.2c2,0,3-1.2,3-3.2c0-3.7-3.9-4.2-3.9-6.8
        c0-0.9,0.4-1.3,1-1.3c0.6,0,1,0.3,1,1.3v0.5h1.9v-0.4c0-2.1-1-3.2-3-3.2s-3,1.2-3,3.2c0,3.7,3.9,4.2,3.9,6.8c0,0.9-0.4,1.2-1,1.2
        c-0.6,0-1-0.3-1-1.2v-0.9H114.3z"/>
      <path id="XMLID_205_" class="st0" d="M130.3,813.6v-1.3c0-2.1-1-3.2-3-3.2c-2,0-3,1.2-3,3.2v6.7c0,2.1,1,3.2,3,3.2
        c2,0,3-1.2,3-3.2v-1.7h-1.9v1.8c0,0.9-0.4,1.2-1,1.2c-0.6,0-1-0.3-1-1.2v-6.9c0-0.9,0.4-1.3,1-1.3c0.6,0,1,0.3,1,1.3v1.4H130.3z"
        />
      <path id="XMLID_225_" class="st0" d="M140.4,819v-6.7c0-2.1-1.1-3.2-3.1-3.2c-2,0-3.1,1.2-3.1,3.2v6.7c0,2.1,1.1,3.2,3.1,3.2
        C139.4,822.2,140.4,821.1,140.4,819z M136.3,819.1v-6.9c0-0.9,0.4-1.3,1-1.3c0.6,0,1,0.3,1,1.3v6.9c0,0.9-0.4,1.3-1,1.3
        C136.7,820.4,136.3,820.1,136.3,819.1z"/>
      <path id="XMLID_228_" class="st0" d="M150.7,813.2v-1c0-2-0.9-3-3-3h-3v12.9h2v-5.2h0.7c0.9,0,1.3,0.4,1.3,1.6v2
        c0,1,0.1,1.2,0.2,1.6h2.1c-0.2-0.5-0.2-0.9-0.2-1.6v-2c0-1.3-0.3-2.3-1.3-2.7C150.3,815.4,150.7,814.5,150.7,813.2z M148.7,813.7
        c0,1-0.5,1.4-1.2,1.4h-0.8v-3.9h1c0.7,0,1,0.4,1,1.3V813.7z"/>
      <polygon id="XMLID_221_" class="st0" points="160.5,811.1 160.5,809.2 155,809.2 155,822.1 160.5,822.1 160.5,820.3 157,820.3
        157,816.5 159.8,816.5 159.8,814.7 157,814.7 157,811.1 			"/>
    </g>
  </g>
</svg>
